HIERARCHY
ROOT Hips
{
	OFFSET -3.958830 18.904000 13.208200
	CHANNELS 6 Xposition Yposition Zposition Zrotation Yrotation Xrotation 
	JOINT LHipJoint
	{
		OFFSET 0.000000 0.000000 0.000000
		CHANNELS 3 Zrotation Yrotation Xrotation
		JOINT LeftUpLeg
		{
			OFFSET 1.800000 -1.400000 0.085000
			CHANNELS 3 Zrotation Yrotation Xrotation
			JOINT LeftLeg
			{
				OFFSET 2.215000 -6.000000 0.000000
				CHANNELS 3 Zrotation Yrotation Xrotation
				JOINT LeftFoot
				{
					OFFSET 2.500000 -6.900000 0.000000
					CHANNELS 3 Zrotation Yrotation Xrotation
					JOINT LeftToeBase
					{
						OFFSET 0.200000 -0.500000 1.950000
						CHANNELS 3 Zrotation Yrotation Xrotation
						End Site
						{
							OFFSET 0.000000 0.000000 0.000000
						}
					}
				}
			}
		}
	}
	JOINT RHipJoint
	{
		OFFSET 0.000000 0.000000 0.000000
		CHANNELS 3 Zrotation Yrotation Xrotation
		JOINT RightUpLeg
		{
			OFFSET -1.800000 -1.400000 0.085000
			CHANNELS 3 Zrotation Yrotation Xrotation
			JOINT RightLeg
			{
				OFFSET -2.215000 -6.000000 0.000000
				CHANNELS 3 Zrotation Yrotation Xrotation
				JOINT RightFoot
				{
					OFFSET -2.500000 -6.900000 0.000000
					CHANNELS 3 Zrotation Yrotation Xrotation
					JOINT RightToeBase
					{
						OFFSET -0.200000 -0.500000 1.950000
						CHANNELS 3 Zrotation Yrotation Xrotation
						End Site
						{
							OFFSET 0.000000 0.000000 0.000000
						}
					}
				}
			}
		}
	}
	JOINT LowerBack
	{
		OFFSET 0.000000 0.000000 0.000000
		CHANNELS 3 Zrotation Yrotation Xrotation
		JOINT Spine
		{
			OFFSET -0.087000 1.940000 -0.288900
			CHANNELS 3 Zrotation Yrotation Xrotation
			JOINT Spine1
			{
				OFFSET 0.000000 1.950000 0.060000
				CHANNELS 3 Zrotation Yrotation Xrotation
				JOINT Neck
				{
					OFFSET 0.000000 0.000000 0.000000
					CHANNELS 3 Zrotation Yrotation Xrotation
					JOINT Neck1
					{
						OFFSET 0.000000 1.600000 0.340000
						CHANNELS 3 Zrotation Yrotation Xrotation
						JOINT Head
						{
							OFFSET 0.000000 1.667000 -0.240000
							CHANNELS 3 Zrotation Yrotation Xrotation
							End Site
							{
								OFFSET 0.000000 0.000000 0.000000
							}
						}
					}
				}
				JOINT LeftShoulder
				{
					OFFSET 0.000000 0.000000 0.000000
					CHANNELS 3 Zrotation Yrotation Xrotation
					JOINT LeftArm
					{
						OFFSET 2.700000 1.550000 -0.730000
						CHANNELS 3 Zrotation Yrotation Xrotation
						JOINT LeftForeArm
						{
							OFFSET 5.450000 0.000000 0.000000
							CHANNELS 3 Zrotation Yrotation Xrotation
							JOINT LeftHand
							{
								OFFSET 3.450000 0.000000 0.000000
								CHANNELS 3 Zrotation Yrotation Xrotation
								JOINT LeftHandIndex1
								{
									OFFSET 0.750000 0.000000 0.000000
									CHANNELS 3 Zrotation Yrotation Xrotation
									End Site
									{
										OFFSET 0.000000 0.000000 0.000000
									}
								}
							}
						}
					}
				}
				JOINT RightShoulder
				{
					OFFSET 0.000000 0.000000 0.000000
					CHANNELS 3 Zrotation Yrotation Xrotation
					JOINT RightArm
					{
						OFFSET -2.700000 1.550000 -0.730000
						CHANNELS 3 Zrotation Yrotation Xrotation
						JOINT RightForeArm
						{
							OFFSET -5.450000 0.000000 0.000000
							CHANNELS 3 Zrotation Yrotation Xrotation
							JOINT RightHand
							{
								OFFSET -3.450000 0.000000 0.000000
								CHANNELS 3 Zrotation Yrotation Xrotation
								JOINT RightHandIndex1
								{
									OFFSET -0.750000 0.000000 0.000000
									CHANNELS 3 Zrotation Yrotation Xrotation
									End Site
									{
										OFFSET 0.000000 0.000000 0.000000
									}
								}
							}
						}
					}
				}
			}
		}
	}
}
MOTION
Frames: 11
Frame Time: 0.016667
0.282990 15.819030 -1.406200 -1.958309 5.977646 9.815835 -15.116425 12.501528 2.682960 7.851597 -2.935753 -19.515788 -8.296305 5.532017 11.799938 -1.171112 4.914125 3.373091 0.340290 -0.217950 -0.058320 18.419930 -10.782822 2.647621 -14.479918 2.713489 -26.295687 5.676565 -4.023783 11.191770 0.413443 -3.609926 3.401118 0.469050 1.304390 0.418260 -3.953124 -0.289133 -6.333559 6.860691 -0.240725 -0.423422 -3.654427 -0.345636 5.749781 1.778426 -0.147570 -3.756515 1.366409 -1.636137 14.520419 -5.985100 -3.203610 4.204080 -23.207784 1.823422 0.000954 -40.261821 4.857557 -4.012842 -25.156948 -16.644427 0.438533 -4.825902 3.286887 -0.117620 1.103850 -0.982820 0.500570 20.006631 -1.563130 -0.239839 42.360424 3.458154 -4.361187 30.969861 33.180883 4.981430 1.345161 -2.176866 -0.606300 0.513620 0.283190 -0.210760 
0.255130 15.835350 -1.406660 -2.038190 6.096820 9.563740 -15.108933 12.510411 2.702769 8.219415 -2.936920 -19.824383 -8.409096 5.647622 12.232988 -1.120187 4.884578 3.352444 0.359050 -0.195510 -0.051230 18.419011 -10.807667 2.643927 -14.462688 2.733152 -26.210512 6.571237 -4.439799 12.510326 0.370684 -3.696304 3.364807 0.440280 1.239400 0.412730 -3.963982 -0.283129 -6.362483 6.991653 -0.263916 -0.008356 -3.735263 -0.343141 5.439315 1.732097 -0.255879 -3.781267 1.130912 -1.700190 14.993725 -5.507400 -3.355030 3.771350 -23.405584 1.760762 0.009825 -40.740728 4.703515 -4.210190 -24.236437 -16.599012 0.358666 -4.747103 3.292470 -0.081000 1.040880 -0.933540 0.502440 20.243764 -1.381945 -0.143430 43.137740 3.380064 -4.764971 29.007007 32.537805 4.359643 1.386689 -2.136710 -0.566730 0.477920 0.257600 -0.205110 
0.204510 15.869390 -1.398680 -2.185424 6.115700 9.099836 -15.093819 12.516537 2.744563 9.063087 -2.907704 -20.348985 -8.943555 6.035616 13.190087 -1.058913 4.985773 3.298822 0.329440 -0.243490 -0.036090 18.422144 -10.837462 2.636896 -14.262117 2.831182 -25.935783 8.028425 -5.206465 14.835897 0.316230 -3.875897 3.306159 0.373590 1.178900 0.374730 -3.990135 -0.281095 -6.419591 7.344700 -0.298879 0.647449 -3.888851 -0.285552 4.997942 1.547306 -0.701981 -3.874102 0.309550 -1.818292 15.800711 -5.308920 -3.453890 3.346640 -23.239500 1.876620 0.045646 -42.186103 4.645323 -4.733185 -22.496294 -16.877939 0.214254 -4.666960 3.205312 -0.004370 0.962780 -0.880230 0.487900 20.322318 -1.096959 0.054363 44.706682 3.228928 -5.493259 25.784056 31.346910 3.368404 1.446825 -2.019694 -0.572150 0.482240 0.245410 -0.219260 
0.140250 15.915250 -1.393860 -2.622881 5.715727 8.324995 -15.066685 12.504937 2.802714 10.361627 -2.842796 -21.220972 -9.597597 6.681202 15.001512 -1.014687 5.209893 3.164760 0.318700 -0.285200 0.004720 18.438940 -10.853555 2.655719 -13.737319 3.136324 -25.572288 9.915157 -6.332327 18.127559 0.217891 -4.194381 3.183006 0.310570 1.080330 0.336860 -4.049805 -0.265876 -6.528275 8.159152 -0.159593 1.756614 -4.220518 0.019971 4.553763 1.372339 -1.314971 -3.902713 -0.869182 -2.032959 17.150110 -4.911060 -3.835230 2.001130 -23.617578 1.823523 -0.020659 -43.092969 4.525421 -5.308271 -20.938086 -18.019815 0.198912 -4.555750 3.113945 0.116670 0.851120 -0.801900 0.454970 20.858390 -0.554495 0.342277 45.848082 2.829235 -6.328945 23.349994 30.200058 2.678348 1.499098 -1.881485 -0.577800 0.486250 0.241720 -0.254570 
0.069870 15.959810 -1.393090 -3.012759 5.172023 7.408506 -15.050978 12.426698 2.959114 12.273569 -2.818480 -23.041984 -10.914532 8.014243 18.491436 -0.919998 5.769820 2.900715 0.308870 -0.322120 0.037110 18.456970 -10.803260 2.676382 -13.151605 3.541454 -24.796137 12.025353 -7.687297 21.546036 0.080166 -4.639416 3.027707 0.248430 0.987600 0.282610 -4.092877 -0.285032 -6.732474 8.878532 0.142723 3.369862 -4.429795 0.544294 3.798117 1.191755 -2.000562 -3.920563 -2.270395 -2.258089 18.857993 -3.970380 -4.532350 0.296870 -24.211765 1.927776 -0.305259 -43.786610 4.150319 -5.767667 -19.718713 -19.142316 0.229967 -4.425944 3.007781 0.250280 0.725750 -0.721020 0.431940 21.581829 -0.067541 0.795348 46.257265 1.671091 -7.447015 22.517536 30.313446 2.584484 1.540803 -1.750697 -0.592220 0.512130 0.234510 -0.283260 
-0.004900 15.995800 -1.393100 -3.105412 4.527606 6.423558 -15.072028 12.283435 3.256321 14.213135 -2.915047 -25.626490 -12.432190 9.834290 23.128233 -0.736959 6.566823 2.520788 0.375500 -0.243370 0.087010 18.457780 -10.711571 2.620838 -12.485756 3.739971 -23.336531 13.438603 -8.888942 24.457416 -0.093536 -5.071939 2.878207 0.229610 0.845590 0.252310 -4.056949 -0.356938 -6.986184 8.827278 0.518661 5.171355 -4.377490 1.126376 3.096259 1.052879 -2.542505 -3.910340 -3.516453 -2.363479 20.668948 -2.682940 -5.125330 -2.024160 -24.458231 2.406709 -0.711222 -44.617970 3.709899 -6.397078 -19.221250 -20.967492 0.461904 -4.259255 2.997369 0.347240 0.587280 -0.610360 0.431090 21.941388 0.034571 1.115623 46.702870 0.393759 -8.305288 22.584294 29.513854 2.486457 1.593484 -1.686153 -0.534320 0.483400 0.177620 -0.290720 
-0.080710 16.025650 -1.405840 -3.185205 3.609958 5.248714 -15.119575 12.030578 3.745739 16.589964 -3.064577 -29.128011 -14.010084 12.282430 28.906824 -0.525506 7.810034 2.003821 0.416920 -0.221490 0.163660 18.460837 -10.556066 2.512445 -11.536124 4.011755 -21.717514 13.986697 -10.033479 27.874394 -0.277101 -5.516917 2.714676 0.201440 0.723460 0.231110 -3.987299 -0.441013 -7.355284 8.826554 0.960045 7.563657 -4.322670 1.907189 2.362951 0.944828 -3.150939 -4.016282 -4.968760 -2.697561 22.679874 -1.936370 -5.722550 -4.730860 -25.214440 2.355610 -1.016327 -44.854950 3.533783 -7.082981 -19.368190 -23.228211 0.762565 -4.123275 2.949949 0.471140 0.461380 -0.502760 0.409460 22.719071 0.791716 1.562444 46.608045 -0.645409 -9.080469 22.412481 28.674554 2.368905 1.632997 -1.588881 -0.516240 0.484750 0.147240 -0.322960 
-0.160090 16.037640 -1.436290 -2.917749 2.636701 4.023828 -15.185535 11.758862 4.287202 18.781794 -3.146063 -32.410983 -15.514704 14.692103 33.866547 -0.315317 9.006000 1.528872 0.464110 -0.187690 0.217150 18.452099 -10.359371 2.409879 -11.011889 4.323000 -20.400961 14.107578 -11.127307 31.505749 -0.461809 -6.003103 2.541907 0.189340 0.617550 0.201710 -3.878145 -0.578911 -7.772892 8.469755 1.275361 10.357682 -4.272601 2.663192 1.687885 0.732552 -3.987174 -4.278274 -6.928754 -2.532311 24.882898 -0.339020 -6.426130 -7.679820 -26.091604 1.886043 -1.083142 -44.836586 3.776927 -8.014436 -19.846834 -26.291050 1.175049 -3.979121 2.928721 0.591010 0.339110 -0.414180 0.394390 23.852918 2.223318 2.029838 45.852111 -0.989794 -9.355707 22.412717 27.113623 2.214032 1.663232 -1.499858 -0.505310 0.493890 0.125870 -0.349810 
-0.243200 16.030340 -1.472780 -2.848199 1.940399 2.889714 -15.254059 11.512651 4.787091 21.159981 -2.925980 -35.189799 -16.829311 16.602547 37.060715 -0.175279 9.932058 1.177707 0.505310 -0.161540 0.261160 18.444347 -10.180438 2.293777 -9.984294 4.548799 -18.974880 13.564284 -11.620690 34.031929 -0.594868 -6.284576 2.442608 0.194390 0.553050 0.179820 -3.772924 -0.709386 -8.118966 8.279800 1.587224 12.922359 -3.945269 3.416746 1.031069 0.411123 -5.023058 -4.305040 -9.204038 -2.385175 26.531433 0.939000 -7.197640 -10.332050 -27.088463 1.970290 -1.424178 -44.792922 3.912123 -8.823109 -20.957185 -29.771202 1.807695 -3.877893 2.912230 0.689450 0.250130 -0.352070 0.387060 25.297743 3.237466 2.313843 44.168260 -1.343347 -9.261259 22.856358 25.261375 2.102261 1.672245 -1.432763 -0.512940 0.522990 0.116750 -0.371430 
-0.322930 16.002090 -1.492140 -2.202203 1.737124 1.689522 -15.330098 11.471202 5.063718 22.262821 -2.794977 -36.765023 -17.131671 17.182725 38.207406 -0.138448 10.227861 1.056906 0.542230 -0.138390 0.315280 18.385689 -10.130507 2.178264 -9.443399 4.373100 -17.102520 12.749040 -11.738724 35.417236 -0.674893 -6.422521 2.395344 0.199580 0.497920 0.162130 -3.581129 -0.905050 -8.301398 7.049578 2.102408 14.884788 -3.241883 4.149049 0.682929 0.232846 -5.508827 -4.314554 -10.569723 -2.293415 28.061964 1.638980 -7.526220 -11.922550 -27.981448 2.040927 -1.679865 -44.643414 4.121947 -9.599876 -22.721424 -33.385349 2.718192 -3.798903 2.920190 0.751500 0.187660 -0.306510 0.378490 26.522669 3.894797 2.553248 42.471820 -1.888549 -9.105636 23.484779 23.546746 1.973969 1.683435 -1.396993 -0.514910 0.536270 0.096170 -0.392040 
-0.394650 15.950490 -1.496310 -1.850407 1.954104 0.994525 -15.339321 11.453668 5.201311 22.983394 -2.615850 -37.801503 -17.084681 16.542050 36.781139 -0.196671 9.975661 1.149307 0.537760 -0.128240 0.299390 18.383001 -10.185802 2.077270 -8.543830 4.018882 -15.416513 11.383880 -11.387864 36.031831 -0.679300 -6.419649 2.428448 0.208440 0.519330 0.135580 -3.567384 -0.934230 -8.346680 6.924513 2.272256 15.728295 -3.427149 4.488650 0.533462 0.033839 -6.035761 -4.237210 -11.752671 -1.956270 28.645604 2.246380 -7.851390 -11.731450 -28.833573 2.011292 -1.969130 -43.400370 3.937275 -9.615387 -25.420864 -35.532517 3.888524 -3.785236 2.930959 0.738180 0.188050 -0.315410 0.391800 27.640563 4.314713 2.776363 41.043003 -2.543659 -8.735357 23.718021 21.359572 1.623641 1.688572 -1.377563 -0.524400 0.571640 0.090120 -0.375250 
